<svg id="Layer_1" data-name="Layer 1" xmlns="http://www.w3.org/2000/svg" viewBox="0 0 78.21 70.84"><defs><style>.cls-1{fill-rule:evenodd;}</style></defs><path class="cls-1" d="M73.4,292.93a32.23,32.23,0,0,1,3.94,3.45,33.42,33.42,0,0,1,0,46.18,31.09,31.09,0,0,1-20.59,9.52c.71.26,1.5.65,2,.82,1,.32,1.82.83,2.68,1.2s4.7,2.6,4.7,3.17c0,.25-.19.31-.34.44H65c-.77-.54-1.39-1.18-2.15-1.75-.55-.42-1.75-1.14-2.38-1.51a40.22,40.22,0,0,0-5.16-2.32h-.7a36.94,36.94,0,0,0-5.15,2.32c-.67.39-1.76,1.07-2.39,1.51s-1.38,1.22-2.14,1.75h-.78c-.15-.13-.35-.19-.35-.44,0-.89,6.38-4.27,9.25-5.2a31.06,31.06,0,0,1-20.46-9.51,33.42,33.42,0,0,1,0-46.18,32.34,32.34,0,0,1,3.61-3.21h-.08c.39-5.19,2.66-4.14,7.33-6.08.2,1.93-3,6.08-6.61,6.13a31.67,31.67,0,0,0-4,3.46,33,33,0,0,0,0,45.6,30.51,30.51,0,0,0,44.15,0,33,33,0,0,0,0-45.6,31.83,31.83,0,0,0-4-3.47c-3.72.25-7.19-4.13-7-6.12,4.6,1.91,6.87.92,7.31,5.85Zm3.18,1.14h0c1.81-2.38.1-6.59-1.37-7.21-.43,3.88-2,5,1.37,7.21Zm3,4h0c2.29-1.92,1.55-6.4.25-7.33-1.27,3.68-3,4.45-.25,7.33Zm-2.42.3h0c-1.07-3.76-2.58-2.65-6.3-3.39.14,1.55,3.55,4.38,6.3,3.39Zm3.15,5h0c-.69-3.85-2.3-2.89-5.94-4,0,1.55,3.11,4.69,5.94,4Zm2.53-.8h0c2.39-2,1.61-6.68.26-7.65-1.32,3.84-3.16,4.64-.26,7.65Zm2,4.61h0c3-1,3.87-5.68,3-7.06-2.6,3.12-4.6,3.22-3,7.06Zm-1.18,2.57h0c.14-4.33-1.83-3.67-5.52-5.7-.37,1.69,2.28,5.82,5.52,5.7Zm3.22,2.92h0c3.35-1.18,4.39-6.44,3.35-8-3,3.54-5.22,3.65-3.35,8Zm-2,3h0c.62-4.29-1.41-3.85-4.86-6.28-.55,1.64,1.63,6,4.86,6.28Zm2.76,2.58h0c3.64-.57,5.71-5.76,4.94-7.56-3.69,3.06-6,2.75-4.94,7.56Zm-.21,5.61h0c-.33-5.15,2-4.44,6.36-7,.5,2-2.5,7-6.36,7Zm-2.19-.55h0c1.58-5.15-1-5-4.76-8.65-1,1.91.83,7.73,4.76,8.65Zm.61,6.78h0c4,.71,8.08-4,7.91-6.19-5,1.91-7.34.73-7.91,6.19Zm-2.28,4.63h0c3.38,2.33,9-.29,9.77-2.34-5.32-.34-7-2.39-9.77,2.34Zm-.4-4.29h0c2.32-4.92-.28-5.14-3.51-9.31-1.27,1.75-.28,7.83,3.51,9.31Zm-3,8.86h0c2.81,3,8.88,1.62,10-.22-5.13-1.46-6.31-3.81-10,.22Zm-1.09-1.83h0c3.63-3.71,1.35-4.72-.27-9.49-1.69,1.19-2.69,7,.27,9.49Zm-2.53,6.75h0c2.82,3,8.88,1.62,10.05-.22-5.13-1.46-6.32-3.81-10.05.22ZM73,344h0c5-2.33,3.16-4.2,3.36-9.6-2.14.54-5.36,6-3.36,9.6Zm-1.26,3.9h0c2.12,3.84,8.76,4,10.46,2.42-4.93-2.86-5.54-5.61-10.46-2.42Zm-5.6,2.62h0c1.3,4.09,7.64,5.55,9.57,4.34-4.18-3.7-4.23-6.45-9.57-4.34Zm-1.42-1.8h0c6.06-.83,4.68-3.41,6.63-9-2.43-.12-7.55,4.53-6.63,9ZM33,294.07h0c3.35-2.2,1.8-3.33,1.37-7.21-1.47.62-3.18,4.83-1.37,7.21Zm-3,4h0c2.79-2.88,1-3.65-.25-7.33-1.3.93-2,5.41.25,7.33Zm3,.16h0c2.75,1,6.15-1.84,6.3-3.39-3.73.74-5.24-.37-6.3,3.39Zm-3.72,5.11h0c2.83.71,5.94-2.43,5.94-4-3.64,1.09-5.25.13-5.94,4Zm-2.53-.8h0c2.9-3,1.06-3.81-.26-7.65-1.35,1-2.13,5.64.26,7.65Zm-2,4.61h0c1.65-3.84-.35-3.94-2.95-7.06-.92,1.38,0,6,2.95,7.06Zm1.46,2.57h0c3.24.12,5.89-4,5.52-5.7-3.69,2-5.66,1.37-5.52,5.7Zm-3.5,2.92h0c1.87-4.36-.4-4.47-3.35-8-1,1.57,0,6.83,3.35,8Zm2,3h0c3.23-.24,5.41-4.64,4.85-6.28-3.44,2.43-5.47,2-4.85,6.28Zm-2.76,2.58h0c-3.65-.57-5.71-5.76-4.94-7.56,3.69,3.06,6,2.75,4.94,7.56Zm.21,5.61h0c.33-5.15-2-4.44-6.36-7-.5,2,2.49,7,6.36,7Zm2.62-.55h0c3.93-.92,5.75-6.74,4.76-8.65-3.77,3.65-6.35,3.5-4.76,8.65Zm-1,6.78h0c-.57-5.46-2.93-4.28-7.91-6.19-.17,2.17,3.87,6.9,7.91,6.19Zm2.28,4.63h0c-2.79-4.73-4.45-2.68-9.77-2.34.75,2.05,6.39,4.67,9.77,2.34Zm.4-4.29h0c3.79-1.48,4.78-7.56,3.51-9.31-3.23,4.17-5.83,4.39-3.51,9.31Zm2.95,8.86h0c-3.73-4-4.91-1.68-10-.22,1.17,1.84,7.24,3.21,10.05.22Zm1.09-1.83h0c3-2.51,2-8.3.27-9.49-1.62,4.77-3.9,5.78-.27,9.49Zm2.53,6.75h0c-3.73-4-4.92-1.68-10-.22,1.17,1.84,7.23,3.21,10,.22Zm3.77-.26h0c2-3.65-1.22-9.06-3.36-9.6.2,5.4-1.69,7.27,3.36,9.6Zm1.41,3.61h0c-4.93-3.18-5.54-.44-10.47,2.43,1.7,1.6,8.34,1.42,10.47-2.43Zm5.31,2.77h0c-5.34-2.12-5.39.64-9.57,4.33,1.93,1.21,8.27-.24,9.57-4.33Zm1.42-1.52h0c.92-4.49-4.21-9.14-6.64-9C40.14,345.33,38.76,347.91,44.82,348.74Z" transform="translate(-15.66 -286.86)"/></svg>