<svg id="aperto_Web-Estate_awards_export.fw-Award_20Logos_20Retina" data-name="aperto_Web-Estate_awards_export.fw-Award%20Logos%20Retina" xmlns="http://www.w3.org/2000/svg" viewBox="0 0 550 62"><defs><style>.cls-1{fill:#2e2d2d;}.cls-2{fill:#bcbcbc;}</style></defs><g id="Ebene_201" data-name="Ebene%201"><path class="cls-1" d="M401.14,455.6h-21l-5,15.38H363.89L385,411h11.36l21.08,60H406.19ZM390.6,421.4s-1.35,5.91-2.52,9.29l-5.31,16h15.66l-5.31-16c-1.09-3.39-2.35-9.29-2.35-9.29Z" transform="translate(-86 -410)"/><path class="cls-1" d="M433.5,411h19.3c6.49,0,9.44.5,12,1.69,6,2.7,9.78,8.45,9.78,16.39,0,7.18-3.79,13.84-10.11,16.4v.17a14.75,14.75,0,0,1,2,3L478.84,471H466.71l-11.89-22.38H444.37V471H433.5V411Zm20.64,28.12c5.82,0,9.44-3.46,9.44-9.46,0-5.74-2.44-9.29-10.95-9.29h-8.27v18.76Z" transform="translate(-86 -410)"/><path class="cls-1" d="M497.38,411h20.4c18.46,0,30.5,11,30.5,29.89s-12,30.06-30.5,30.06h-20.4Zm19.82,50.59c12.13,0,19.87-7.18,19.87-20.7,0-13.34-7.93-20.52-19.87-20.52h-8.94v41.22Z" transform="translate(-86 -410)"/><path class="cls-1" d="M567.76,455.6s6.5,6.34,14.92,6.34c4.54,0,8.68-2.36,8.68-7.26,0-10.73-28.23-8.88-28.23-27.28,0-10,8.59-17.4,20-17.4,11.8,0,17.87,6.42,17.87,6.42l-4.72,8.87s-5.75-5.23-13.24-5.23c-5.05,0-9,3-9,7.18,0,10.64,28.13,8,28.13,27.2C602.2,464,595,472,582.49,472a29,29,0,0,1-20.64-8.18Z" transform="translate(-86 -410)"/><path class="cls-2" d="M278.5,411l-9.86,41.48a52.63,52.63,0,0,0-1,6.32h-.17a48.52,48.52,0,0,0-1.1-6.32L255.74,411h-9.43L235.52,452.5a48.22,48.22,0,0,0-1.1,6.32h-.16a57.51,57.51,0,0,0-1-6.32l-7.06-31.06-5.31,22.64L227.6,471h12.56l9.18-35.47a72.63,72.63,0,0,0,1.52-7.85H251a71.28,71.28,0,0,0,1.53,7.85L261.74,471h12.55l15.43-60Z" transform="translate(-86 -410)"/><path class="cls-2" d="M346,411l-9.87,41.48a53.73,53.73,0,0,0-1,6.32H335a46.31,46.31,0,0,0-1.08-6.32L323.25,411h-9.43L303,452.5a45.26,45.26,0,0,0-1.09,6.32h-.18a52.31,52.31,0,0,0-1-6.32l-7.1-31.2L288.34,444l6.77,27h12.55l9.18-35.47a74,74,0,0,0,1.53-7.86h.17a71.15,71.15,0,0,0,1.51,7.86l9.2,35.47H341.8l15.43-60Z" transform="translate(-86 -410)"/><path class="cls-1" d="M123.25,455.6h-21L97.21,471H86l21.07-60h11.38l21.07,60H128.31Zm-10.53-34.2s-1.35,5.91-2.53,9.29l-5.31,16h15.68l-5.32-16c-1.09-3.38-2.36-9.29-2.36-9.29Z" transform="translate(-86 -410)"/><path class="cls-1" d="M198.85,452.49a45.51,45.51,0,0,1,1.09,6.33h.17a54.77,54.77,0,0,1,1-6.33L211,411h11.21l-15.43,60H194.21L185,435.51a74,74,0,0,1-1.53-7.86h-.16a69.85,69.85,0,0,1-1.52,7.86L172.63,471H160.08l-15-60h11.21l9.44,41.48a52.63,52.63,0,0,1,1,6.32h.17a46.55,46.55,0,0,1,1.1-6.32L178.79,411h9.43Z" transform="translate(-86 -410)"/><path class="cls-1" d="M625.71,410.86a10.49,10.49,0,1,1-10.16,10.48A10.32,10.32,0,0,1,625.71,410.86Zm0,19.75a9.27,9.27,0,1,0-8.87-9.26A9,9,0,0,0,625.71,430.61Zm-3.34-15.05h3.84a3.2,3.2,0,0,1,3.35,3.36,3,3,0,0,1-2.23,3.09v.06s.1.15.38.64l2.29,4.43h-1.42l-2.46-4.84h-2.49v4.84h-1.25V415.56Zm3.69,5.64a2.09,2.09,0,0,0,2.2-2.29,2,2,0,0,0-2.2-2.2h-2.43v4.49Z" transform="translate(-86 -410)"/></g></svg>