<svg id="Layer_1" data-name="Layer 1" xmlns="http://www.w3.org/2000/svg" viewBox="0 0 16.44 34.09"><defs><style>.cls-1{fill-rule:evenodd;}</style></defs><path class="cls-1" d="M208.3,501.3h16.44v2.44H208.3V501.3Zm16.44,3.23v2.23a10.09,10.09,0,0,0-6.1,3.95c0,4.76,2.62,12.15.35,15.24a3.06,3.06,0,0,1-4.85.13c-2.44-3,.25-10.55.25-15.37a10.07,10.07,0,0,0-6.09-3.95v-2.23Zm-8.19,17.77a1.5,1.5,0,1,0,1.5,1.5,1.5,1.5,0,0,0-1.5-1.5Zm8.19-22.12v-5a2.35,2.35,0,0,0-2.53-2.1h-.82l-.48,1.77-.54-1.77h-7.29l-.16,4.38-.21,0-.49-4.41h-.63l-.16,4.41h-.22l-.49-4.41a2.32,2.32,0,0,0-2.42,2.1v5Z" transform="translate(-208.3 -493.12)"/></svg>