<svg id="Layer_1" data-name="Layer 1" xmlns="http://www.w3.org/2000/svg" viewBox="0 0 36.11 28.25"><defs><style>.cls-1{fill-rule:evenodd;}</style></defs><path class="cls-1" d="M234.53,416.2h-1.4l.14,2h1.11l.15-2Zm-18,4.88a1.59,1.59,0,1,1-1.59,1.59,1.59,1.59,0,0,1,1.59-1.59Zm-15-.92h2.66v-.45h1.37v-1.14H199a10.89,10.89,0,0,1,.43-4.29h.19l6-10a1.27,1.27,0,0,1-.05-.34,1.06,1.06,0,0,1,1.06-1.07.91.91,0,0,1,.41.09l25.11-5.4.3-.25.33-.28.32.29.89.84.36.35-.29.29v16.92h1l0,.26-.19,2.53v.23h-.47l.32.95a1,1,0,0,1-2.05.24l.25-.2a.87.87,0,0,0,.76.32l.17-.35-.36-.29-.08-.67h-.56l0-.23-.17-2.53,0-.26h1V399.28l-16,16.07a14.49,14.49,0,0,1,.05,3.22H212.2v1.14h1.65v.45h2.61a2.56,2.56,0,0,1,0,5.11H201.52a2.59,2.59,0,0,1-1.81-.75,2.55,2.55,0,0,1,0-3.61,2.59,2.59,0,0,1,1.81-.75Zm14.94.53H201.52a2,2,0,0,0-1.43.6,2,2,0,0,0,0,2.85,2,2,0,0,0,1.43.6h14.94a2,2,0,0,0,0-4.05ZM206.16,423h1.44a.76.76,0,1,0,.65,0h1.44a.76.76,0,1,0,.65,0h1.44a.75.75,0,1,0,.66,0h1.43a.75.75,0,1,0,.66,0h.15a.25.25,0,0,0,.25-.25h0a.25.25,0,0,0-.25-.24h-.25a.76.76,0,0,0,.52-.72.75.75,0,0,0-1.5,0,.76.76,0,0,0,.52.72h-1.64a.75.75,0,1,0-.45,0h-1.64a.75.75,0,1,0-1-.72.77.77,0,0,0,.53.72h-1.64a.77.77,0,0,0,.53-.72.76.76,0,1,0-1,.72h-1.64a.76.76,0,0,0,.52-.72.75.75,0,1,0-1,.72H204a.76.76,0,0,0,.52-.72.75.75,0,0,0-1.5,0,.76.76,0,0,0,.52.72h-.14a.25.25,0,0,0-.25.24h0a.25.25,0,0,0,.25.25h0a.75.75,0,1,0,.66,0h1.43a.75.75,0,1,0,.66,0Zm-2.42-1.51a.3.3,0,0,0-.31.3.31.31,0,0,0,.62,0,.3.3,0,0,0-.31-.3Zm10.46,0a.3.3,0,0,0-.31.3.31.31,0,0,0,.62,0,.3.3,0,0,0-.31-.3Zm-2.09,0a.3.3,0,0,0-.31.3.31.31,0,1,0,.62,0,.3.3,0,0,0-.31-.3Zm-2.09,0a.3.3,0,0,0-.31.3.31.31,0,0,0,.31.31.3.3,0,0,0,.3-.31.29.29,0,0,0-.3-.3Zm-2.1,0a.29.29,0,0,0-.3.3.3.3,0,0,0,.3.31.31.31,0,0,0,.31-.31.3.3,0,0,0-.31-.3Zm-2.09,0a.3.3,0,0,0-.31.3.31.31,0,1,0,.62,0,.3.3,0,0,0-.31-.3Zm-2.09,1.88a.3.3,0,0,0-.31.3.31.31,0,0,0,.62,0,.3.3,0,0,0-.31-.3Zm10.46,0a.3.3,0,0,0-.31.3.31.31,0,0,0,.62,0,.3.3,0,0,0-.31-.3Zm-2.09,0a.3.3,0,0,0-.31.3.31.31,0,1,0,.62,0,.3.3,0,0,0-.31-.3Zm-2.09,0a.3.3,0,0,0-.31.3.31.31,0,0,0,.31.31.3.3,0,0,0,.3-.31.29.29,0,0,0-.3-.3Zm-2.1,0a.29.29,0,0,0-.3.3.3.3,0,0,0,.3.31.31.31,0,0,0,.31-.31.3.3,0,0,0-.31-.3Zm-2.09,0a.3.3,0,0,0-.31.3.31.31,0,1,0,.62,0,.3.3,0,0,0-.31-.3Zm-4.38-2.26a1.59,1.59,0,1,0,1.59,1.59,1.59,1.59,0,0,0-1.59-1.59Zm0,.94a.65.65,0,1,0,.65.65.65.65,0,0,0-.65-.65Zm15.09,0a.65.65,0,1,0,.65.65.65.65,0,0,0-.65-.65Zm-16-6.19v.32h2v-.32Zm0-.64v.32h2v-.32Zm0,1.28v.33h2v-.33Zm0,.64v.33h2v-.33Zm30.8-18.89-23.84,5.12a1.07,1.07,0,0,1,.17.59,1,1,0,0,1-.39.82v1H207v7.67h2.84v-2.61h6.37a1,1,0,0,1,.07.15l15.06-12.75Zm-14.59,13.92a18.34,18.34,0,0,1,.58,2l.6-.61-1.18-1.42Zm.23-.48,1.23,1.47.12-2.62L217,411.66Zm1.95-1.66,1.24,1.24.13-2.4L218.94,410Zm2-1.67,1.11,1.11.22-2.23-1.33,1.12Zm2-1.7.93.93.1-1.8-1,.87Zm1.86-1.57.82.82,0,0L226,404l-1.24,1.05Zm1.93-1.63.67.67.06-.05.35-1.54-1.08.92Zm1.74-1.48.54.54.06-.06.27-1.22-.87.74Zm1.66-1.41.41.41,0,0,.19-.91-.64.54Zm1.43-1.21.3.3,0,0,.14-.67-.48.41Zm1.09-.92-.11.54.43-.43-.21-.2-.11.09ZM231.5,400l-.2-.2-.11.51.31-.31Zm-1.32,1.33-.31-.31-.18.79.49-.48Zm-1.53,1.53-.36-.36-.21.93.57-.57ZM227,404.44l-.51-.51-.26,1.29.77-.78Zm-1.78,1.79-.8-.8-.1,1.7.9-.9Zm-1.71,1.71-.81-.8-.18,1.8,1-1Zm-1.85,1.86-.91-.9-.1,1.91,1-1Zm-1.82,1.82-1-1-.11,2.21,1.16-1.17Zm-3.43,3.51,0,0,0,0a11.58,11.58,0,0,0-.92-3.14H211v3.26h1.7l.48.83h3.39c0-.29,0-.59-.08-.89Zm-16.29-.85h5.91v-.85h.09v-7.67h-.26v-1Z" transform="translate(-198.94 -397.02)"/></svg>