<svg id="Layer_1" data-name="Layer 1" xmlns="http://www.w3.org/2000/svg" viewBox="0 0 136.07 34.03"><path d="M93.91,38.29a2.3,2.3,0,0,0-2.5.47c-.88.69-1.58,2.11-2.13,4.29v0c-.28,3.13-1.11,4.5-2.49,4.07a6.19,6.19,0,0,1-3.46-3c-1.47-2.54-2.56-4.38-3.22-5.54s-1.18-2-1.59-2.56-.63-.93-.67-1c-.19-.29-.39-.6-.58-.94a1.92,1.92,0,0,0-.39-.52A1.76,1.76,0,0,0,75.5,33a1.72,1.72,0,0,0-1.36.55,1.58,1.58,0,0,0-.51,1.3,2.57,2.57,0,0,0,.42,1.31c.13.19.27.41.4.64l2.8,5c.09.18.39.8.9,1.88s.75,1.65.83,1.9-.24.51-.67.36a17.67,17.67,0,0,1-1.55-1.2c-.81-.67-1.42-1.21-1.82-1.62s-.86-.83-1.32-1.22a17.53,17.53,0,0,1-1.47-1.34c-.15-.13-.57-.53-1.24-1.2l-1.09-1.08-.72-.67c-.26-.25-.58-.52-.93-.83a2.32,2.32,0,0,0-1.12-.61,1.1,1.1,0,0,0-.25,0,1.62,1.62,0,0,0-.31,0,2,2,0,0,0-1.65,2,1.45,1.45,0,0,0,.18.74,3.08,3.08,0,0,0,.52.68c.25.24.52.51.82.82C67.44,41.44,69,43.16,70.81,45a53,53,0,0,1,3.94,4.27.87.87,0,0,1,0,1.32q-.33.33-.93-.09c-.39-.28-1.16-.79-2.33-1.5q-1.46-.89-5.62-3.92l-1-.8c-.14-.11-.26-.21-.39-.33a2.12,2.12,0,0,0-1.31-.49,1.91,1.91,0,0,0-2,2,2.78,2.78,0,0,0,1,1.76c1,.78,1.55,1.26,1.75,1.45l3.07,2.18a38.27,38.27,0,0,1,5.37,4.13c.53.55-.37,1.37-2,.7L65,53.18c-.7-.31-1.47-.62-2.33-.91a1.58,1.58,0,0,0-1.2.51,1.71,1.71,0,0,0,0,2.4,2.83,2.83,0,0,0,.77.55,2.64,2.64,0,0,0,.41.23c.33.16,1.07.58,2.23,1.24a51.17,51.17,0,0,1,5.09,3.64c1.06.82,1.94,1.52,2.63,2.11l1.78,1.46c.35.26.67.5,1,.72a11.37,11.37,0,0,0,5,1.85,6.16,6.16,0,0,0,5.58-2.22,37.9,37.9,0,0,1,4.34-4.35c1.42-1.2,2.34-3.84,2.39-7a59.72,59.72,0,0,1,1.1-10C94.35,40.38,94.7,38.66,93.91,38.29Z" transform="translate(-60.94 -32.99)"/><polygon points="120.41 12.9 118.53 12.9 118.53 13.18 119.32 13.18 119.32 15.24 119.63 15.24 119.63 13.18 120.41 13.18 120.41 12.9"/><polygon points="121.85 14.88 121.1 12.9 120.68 12.9 120.68 15.24 120.97 15.24 120.97 13.29 121.71 15.24 121.98 15.24 122.72 13.29 122.72 15.24 123.01 15.24 123.01 12.9 122.58 12.9 121.85 14.88"/><polygon points="111 27.49 110.39 29.72 110.39 29.72 109.79 27.49 109.5 27.49 109.22 27.49 108.64 29.7 108.06 27.49 107.78 27.49 107.5 27.49 108.36 30.27 108.63 30.27 108.9 30.27 109.49 28.1 110.11 30.27 110.38 30.27 110.65 30.27 111.5 27.49 111.25 27.49 111 27.49"/><path d="M174.17,60.39a1.39,1.39,0,0,0-1,.41,1.62,1.62,0,0,0-.38,1.12,1.45,1.45,0,0,0,.36,1,1.35,1.35,0,0,0,1,.37,1.49,1.49,0,0,0,.87-.24,1.2,1.2,0,0,0,.45-.7h-.5a.63.63,0,0,1-.27.39.85.85,0,0,1-.51.15.83.83,0,0,1-.67-.26,1.21,1.21,0,0,1-.2-.64h2.19v-.17a1.57,1.57,0,0,0-.36-1.07A1.22,1.22,0,0,0,174.17,60.39Zm-.88,1.26a1,1,0,0,1,.22-.57.82.82,0,0,1,.64-.27.73.73,0,0,1,.6.24.9.9,0,0,1,.21.6Z" transform="translate(-60.94 -32.99)"/><rect x="115.29" y="29.71" width="0.6" height="0.57"/><path d="M179.69,59.43v1.45l0-.06a1,1,0,0,0-.88-.43,1.17,1.17,0,0,0-.9.38,1.49,1.49,0,0,0-.35,1,1.68,1.68,0,0,0,.36,1.13,1.22,1.22,0,0,0,1,.41,1,1,0,0,0,.82-.37l.07-.08v.38h.47V59.43h-.51Zm-.22,3.25a.76.76,0,0,1-.6.25.7.7,0,0,1-.6-.28,1.22,1.22,0,0,1-.22-.79,1.32,1.32,0,0,1,.2-.8.73.73,0,0,1,.62-.25.68.68,0,0,1,.61.31,1.57,1.57,0,0,1,.21.88A1,1,0,0,1,179.47,62.68Z" transform="translate(-60.94 -32.99)"/><path d="M182.13,60.39a1.31,1.31,0,0,0-1,.4,1.5,1.5,0,0,0-.39,1.07,1.48,1.48,0,0,0,.39,1.07,1.48,1.48,0,0,0,2,0,1.48,1.48,0,0,0,.39-1.07,1.5,1.5,0,0,0-.39-1.07A1.31,1.31,0,0,0,182.13,60.39Zm.63,2.25a.84.84,0,0,1-1.27,0,1.23,1.23,0,0,1-.23-.78,1.27,1.27,0,0,1,.23-.78.84.84,0,0,1,1.27,0,1.21,1.21,0,0,1,.24.78A1.17,1.17,0,0,1,182.76,62.64Z" transform="translate(-60.94 -32.99)"/><rect x="123.3" y="29.71" width="0.6" height="0.57"/><polygon points="127.98 27.49 127.37 29.72 126.76 27.49 126.48 27.49 126.2 27.49 125.61 29.7 125.03 27.49 124.75 27.49 124.48 27.49 125.33 30.27 125.61 30.27 125.88 30.27 126.46 28.1 127.09 30.27 127.36 30.27 127.63 30.27 128.48 27.49 128.23 27.49 127.98 27.49"/><path d="M191.15,60.39a1.39,1.39,0,0,0-1,.41,1.57,1.57,0,0,0-.39,1.12,1.45,1.45,0,0,0,.37,1,1.34,1.34,0,0,0,1,.37,1.43,1.43,0,0,0,.86-.24,1.11,1.11,0,0,0,.45-.7h-.5a.61.61,0,0,1-.26.39.88.88,0,0,1-.51.15.83.83,0,0,1-.67-.26,1.13,1.13,0,0,1-.21-.64h2.2v-.17a1.53,1.53,0,0,0-.37-1.07A1.21,1.21,0,0,0,191.15,60.39Zm-.89,1.26a1.13,1.13,0,0,1,.23-.57.81.81,0,0,1,.64-.27.75.75,0,0,1,.6.24,1,1,0,0,1,.21.6Z" transform="translate(-60.94 -32.99)"/><path d="M194.4,60.39a1,1,0,0,0-.86.44v-1.4H193v3.83h.48v-.34l.05,0a1,1,0,0,0,.81.36,1.17,1.17,0,0,0,1-.41,1.71,1.71,0,0,0,.35-1.14,1.45,1.45,0,0,0-.35-1A1.2,1.2,0,0,0,194.4,60.39Zm.54,2.26a.7.7,0,0,1-.6.28.71.71,0,0,1-.59-.25,1,1,0,0,1-.21-.68,1.63,1.63,0,0,1,.19-.9.68.68,0,0,1,.61-.28.71.71,0,0,1,.61.25,1.22,1.22,0,0,1,.2.77A1.31,1.31,0,0,1,194.94,62.65Z" transform="translate(-60.94 -32.99)"/><rect x="135.47" y="29.71" width="0.6" height="0.57"/><path d="M160.4,45.65h-.17a6.15,6.15,0,0,0-4.38,2,6.27,6.27,0,0,0-1.79,4.46A6.35,6.35,0,0,0,156,56.71a6,6,0,0,0,4.37,1.85h.23A6.09,6.09,0,0,0,164.53,57l0,0v.32a3.4,3.4,0,0,1-1.16,2.59,4.07,4.07,0,0,1-4.53.72.89.89,0,0,0-.39-.09,1,1,0,0,0-.13,2,6.69,6.69,0,0,0,2.09.4h.26a6.41,6.41,0,0,0,4.13-1.45,4.84,4.84,0,0,0,1.95-3.93V52.12a6.13,6.13,0,0,0-1.92-4.6A6.2,6.2,0,0,0,160.4,45.65Zm2.95,9.52a3.78,3.78,0,0,1-2.85,1.22,4.07,4.07,0,0,1-3-1.22,4.17,4.17,0,0,1-1.26-3,4.23,4.23,0,0,1,1.15-3,4,4,0,0,1,2.85-1.37h.2a3.81,3.81,0,0,1,2.87,1.27,4.41,4.41,0,0,1,0,6.09Z" transform="translate(-60.94 -32.99)"/><path d="M109.17,51.21a6.44,6.44,0,0,0-5.93-5.54h-.38a6,6,0,0,0-4.34,1.83,6.32,6.32,0,0,0,0,9.14,6.75,6.75,0,0,0,4.57,1.93h.11a5.69,5.69,0,0,0,3.35-.93,6.75,6.75,0,0,0,2-2.07h0a1.17,1.17,0,0,0,.21-.65,1,1,0,0,0-1.85-.57v0a4.16,4.16,0,0,1-4,2.3h-.06a4.09,4.09,0,0,1-2.8-1.16,4.42,4.42,0,0,1-1.42-2.64h0l-.06,0H108a1.24,1.24,0,0,0,1.18-1.13h0v-.1A1.49,1.49,0,0,0,109.17,51.21ZM98.73,51h0a4.3,4.3,0,0,1,4.2-3.24H103a4.29,4.29,0,0,1,2.76,1A4.11,4.11,0,0,1,107,50.56h0l0,.14,0,.07h0l0,.18Z" transform="translate(-60.94 -32.99)"/><path d="M151.48,42.32a1.22,1.22,0,1,0,1.23,1.22A1.22,1.22,0,0,0,151.48,42.32Z" transform="translate(-60.94 -32.99)"/><path d="M179.12,55.57v-4a5.44,5.44,0,0,0-1.55-4,5.57,5.57,0,0,0-7.77,0,5.44,5.44,0,0,0-1.55,4v5.92h0v0a1,1,0,0,0,2,0,.49.49,0,0,0,0-.12v-6a3.17,3.17,0,0,1,1-2.38,3.32,3.32,0,0,1,4.77,0,3.17,3.17,0,0,1,1,2.38v4.15a1,1,0,0,0,1,.95A1,1,0,0,0,179.12,55.57Z" transform="translate(-60.94 -32.99)"/><path d="M115.64,42h-3.48v0l-.2,0a1.23,1.23,0,0,0-1.2,1.07h0v.17h0V57.11h0v.06h0A1.22,1.22,0,0,0,112,58.34a1.34,1.34,0,0,0,.2,0h4.26a8,8,0,0,0,5.77-2.4,7.85,7.85,0,0,0,2.42-5.75,7.66,7.66,0,0,0-2.54-5.84A9.14,9.14,0,0,0,115.64,42Zm5.09,12.47a5.84,5.84,0,0,1-4.39,1.9h-3.43l0,0h0V44.11h0l0,0h3a6.72,6.72,0,0,1,4.58,1.72,5.66,5.66,0,0,1,2,4.23A5.94,5.94,0,0,1,120.73,54.5Z" transform="translate(-60.94 -32.99)"/><path d="M138.57,51.17a6.44,6.44,0,0,0-5.94-5.54h-.37a6,6,0,0,0-4.35,1.83,6.18,6.18,0,0,0-1.93,4.7,6.1,6.1,0,0,0,2,4.44,6.76,6.76,0,0,0,4.58,1.92h.11a5.73,5.73,0,0,0,3.34-.93,6.79,6.79,0,0,0,2-2.08h0a1.13,1.13,0,0,0,.22-.65,1,1,0,0,0-1-1,1,1,0,0,0-.84.44v0a4.16,4.16,0,0,1-4,2.3h-.06a4.07,4.07,0,0,1-2.79-1.16,4.46,4.46,0,0,1-1.43-2.64h0l-.05,0h9.36a1.23,1.23,0,0,0,1.18-1.13h0a.38.38,0,0,0,0-.1A1.49,1.49,0,0,0,138.57,51.17Zm-10.45-.26h0a4.22,4.22,0,0,1,1.45-2.29,4.27,4.27,0,0,1,2.74-.95h.07a4.32,4.32,0,0,1,2.76,1,4.27,4.27,0,0,1,1.28,1.87h0l0,.14a.25.25,0,0,0,0,.07h0l.05.18Z" transform="translate(-60.94 -32.99)"/><path d="M152.5,57.38V46.65h0a1,1,0,0,0-2,0,1,1,0,0,0,0,.18h0l0,10.6h0s0,0,0,.07a1,1,0,0,0,2,0,.37.37,0,0,0,0-.11Z" transform="translate(-60.94 -32.99)"/><path d="M145,51.18A7.21,7.21,0,0,1,142.79,50a1.39,1.39,0,0,1-.48-1,1.25,1.25,0,0,1,.57-1,2.3,2.3,0,0,1,1.44-.46,8.58,8.58,0,0,1,2.79,1.14h0A1,1,0,1,0,148,47a6.3,6.3,0,0,0-3.59-1.2,4.52,4.52,0,0,0-2.92.93,2.93,2.93,0,0,0-.43,4.29,7.32,7.32,0,0,0,2.69,1.67A8.53,8.53,0,0,1,146,53.9a1.43,1.43,0,0,1,.47,1,1.54,1.54,0,0,1-.72,1.25,2.89,2.89,0,0,1-1.78.56,4.51,4.51,0,0,1-2.23-.71.31.31,0,0,0-.1,0h0a.93.93,0,0,0-.44-.11,1,1,0,0,0-.95.95.94.94,0,0,0,.63.9c.22.11.46.22.74.33a6.62,6.62,0,0,0,2.42.45,4.94,4.94,0,0,0,3.2-1,3.25,3.25,0,0,0,1.3-2.59,2.91,2.91,0,0,0-.77-2A8.21,8.21,0,0,0,145,51.18Z" transform="translate(-60.94 -32.99)"/></svg>