<svg id="Layer_1" data-name="Layer 1" xmlns="http://www.w3.org/2000/svg" viewBox="0 0 154.26 38.65"><defs><style>.cls-1{fill:#231f20;fill-rule:evenodd;}</style></defs><path class="cls-1" d="M313.22,403.45a12.66,12.66,0,0,0-6.38,1.59c0-5.67,0-10.81.18-12.59l-11.88,2.13v1.07l1.24.17c1.59.36,2.13,1.24,2.48,3.37.35,4.26.18,26.95,0,30.68a46.06,46.06,0,0,0,9.93,1.24c9.4,0,15.07-5.85,15.07-15.07,0-7.27-4.61-12.59-10.64-12.59Zm-4.08,25.71A7.8,7.8,0,0,1,307,429c-.18-2.48-.36-12.94-.18-22.16a7.69,7.69,0,0,1,2.66-.53c3.9,0,6,4.61,6,10.28,0,7.09-2.66,12.59-6.39,12.59Z" transform="translate(-219.25 -392.45)"/><path class="cls-1" d="M250.45,393.16h-31.2v1.6l1.77.18c2.31.35,3.19,1.77,3.55,5.14a207.59,207.59,0,0,1,0,23.41c-.36,3.36-1.24,5-3.55,5.14l-1.77.35v1.42h20V429l-2.12-.35c-2.31-.18-3.2-1.78-3.55-5.14-.18-2.31-.35-6-.35-10.64l4.25.17c2.66,0,3.9,2.13,4.43,5.15h1.6V405.58h-1.6c-.53,3-1.77,5.14-4.43,5.14l-4.25.18c0-6,.17-11.71.35-15.08h6.21c4.78,0,7.27,3,9,8.34l1.77-.53-.18-10.47Z" transform="translate(-219.25 -392.45)"/><path class="cls-1" d="M260.56,403.09c8.87,0,13.3,6,13.3,14,0,7.63-5,14-13.83,14s-13.3-6-13.3-14c0-7.62,5-14,13.83-14Zm-.53,1.78c-3.9,0-5,5.32-5,12.23,0,6.74,1.78,12.24,5.32,12.24,4.08,0,5.15-5.32,5.15-12.24,0-6.74-1.78-12.23-5.5-12.23Z" transform="translate(-219.25 -392.45)"/><path class="cls-1" d="M326.17,417.28c0-7.27,4.61-14.19,13.65-14.19,7.45,0,11,5.5,11,12.77H334.32c-.18,6.56,3,11.35,9.4,11.35a9.11,9.11,0,0,0,6-1.95l.71.88a13.28,13.28,0,0,1-10.64,5c-8,0-13.65-5.68-13.65-13.83Zm8.15-3.37,8.34-.18c0-3.54-.54-8.86-3.55-8.86s-4.61,5-4.79,9Z" transform="translate(-219.25 -392.45)"/><path class="cls-1" d="M371.91,404.51a21.81,21.81,0,0,0-8.15-1.42c-6.56,0-10.64,3.9-10.64,8.51s3,6.57,7.27,8c4.43,1.6,5.67,2.84,5.67,5a4.11,4.11,0,0,1-4.43,4.08c-3.37,0-5.85-1.95-7.8-7.27l-1.24.35.17,7.8a27.93,27.93,0,0,0,9.4,1.6c6.92,0,11.35-3.55,11.35-9,0-3.73-1.95-5.86-6.56-7.63-5-1.95-6.74-3.19-6.74-5.49a3.68,3.68,0,0,1,3.72-3.91c3.19,0,5.32,1.95,6.92,6.74l1.24-.35-.18-6.92Z" transform="translate(-219.25 -392.45)"/><path class="cls-1" d="M296.91,403.8c-3-1.77-8.33-.88-11.17,5.5l.18-6.21L274,405.4v1.06l1.24.18c1.59.18,2.3,1.06,2.48,3.37a146.78,146.78,0,0,1,0,15.42c-.18,2.13-.89,3.2-2.48,3.37L274,429v1.42h16.49V429l-2.13-.18c-1.77-.17-2.31-1.24-2.48-3.37a124.55,124.55,0,0,1-.18-14.36c.89-1.24,4.79-2.3,8.33,0l2.84-7.27Z" transform="translate(-219.25 -392.45)"/></svg>