<svg id="Layer_1" data-name="Layer 1" xmlns="http://www.w3.org/2000/svg" viewBox="0 0 337.67 100.33"><path d="M420.17,374.39a7.24,7.24,0,0,1,3.49.89,7.32,7.32,0,0,1,3.84,6.44h0v20.84h20.17a7.33,7.33,0,0,1,0,14.66H427.5V437a7.34,7.34,0,0,1-7.33,7.34l-56.17,0a7.33,7.33,0,0,1-7.33-7.33V409.56h0a7.33,7.33,0,0,1,7.32-7h48.83v-13.5H356.47l-26.75,49.63a7.48,7.48,0,0,1-14.2,1l-21.13-41.47L273,438.77a9.5,9.5,0,0,1-4.45,5.14,7.3,7.3,0,0,1-9.5-2.91,6.56,6.56,0,0,1-.69-1.31l-25.79-50.63H189.5v13.5h34.83a7.33,7.33,0,1,1,0,14.66H189.5v20.17a7.34,7.34,0,0,1-14.67,0V417.22H154.67a7.33,7.33,0,1,1,0-14.66h20.16V381.72h0a7.34,7.34,0,0,1,3.84-6.44,7.25,7.25,0,0,1,3.5-.89h54.66a7.37,7.37,0,0,1,3.31.79,7.28,7.28,0,0,1,3.62,3.52l21.63,42.44,21.69-40.53c1.09-2.22,1.69-4.21,4-5.34a7.29,7.29,0,0,1,8.1,1.18,8.78,8.78,0,0,1,2.87,3.52l20.44,41.17,22.94-42.55a7.21,7.21,0,0,1,2.36-2.51,7.32,7.32,0,0,1,4.68-1.69h67.67M371,429.64h41.83V417.22H371v12.42m49.17-70.25H352.5a23.94,23.94,0,0,0-20.08,11.78l-.09.15-.08.15-9.36,17.36S312,367.56,308.88,365a22.31,22.31,0,0,0-24.27-3.22c-5.82,2.8-9,7.93-11.78,14l-7.07,13.11L257.19,372a23,23,0,0,0-20.36-12.61H182.17a22.32,22.32,0,0,0-22.34,22.33v5.84h-5.16a22.33,22.33,0,1,0,0,44.66h5.16v5.17a22.34,22.34,0,0,0,44.67,0v-5.17h19.83a22.18,22.18,0,0,0,11.72-3.32l8.74,17.16a22.39,22.39,0,0,0,30.28,11.37,25.64,25.64,0,0,0,12.6-12.71L294,430.54l7.91,15.53a22.7,22.7,0,0,0,1.52,2.83,22.31,22.31,0,0,0,39.87-3.49A22.38,22.38,0,0,0,364,459.3l56.17,0a22,22,0,0,0,22.33-21.93v-5.17h5.17a22.33,22.33,0,0,0,0-44.66H442.5v-5.84a22.32,22.32,0,0,0-22.33-22.33Z" transform="translate(-132.33 -359.39)"/></svg>