<svg id="Layer_1" data-name="Layer 1" xmlns="http://www.w3.org/2000/svg" viewBox="0 0 194.35 222.51"><defs><style>.cls-1{fill:none;stroke:#231f20;stroke-miterlimit:10;stroke-width:7px;}</style></defs><polygon class="cls-1" points="3.5 138.06 49.92 111.25 96.35 138.06 96.35 191.66 49.92 218.47 3.5 191.66 3.5 138.06"/><polyline class="cls-1" points="3.5 191.66 49.65 167.21 96.35 191.66"/><line class="cls-1" x1="49.92" y1="111.25" x2="49.92" y2="167.21"/><polygon class="cls-1" points="3.5 30.84 49.92 4.04 96.35 30.84 96.35 84.45 49.92 111.25 3.5 84.45 3.5 30.84"/><polyline class="cls-1" points="3.5 84.45 49.65 60 96.35 84.45"/><line class="cls-1" x1="49.92" y1="4.04" x2="49.92" y2="60"/><polygon class="cls-1" points="98 86.8 144.42 60 190.85 86.8 190.85 140.41 144.42 167.21 98 140.41 98 86.8"/><polyline class="cls-1" points="98 140.41 144.15 115.95 190.85 140.41"/><line class="cls-1" x1="144.42" y1="60" x2="144.42" y2="115.95"/></svg>