<svg id="aperto_Web-Estate_awards_export.fw-Award_20Logos_20Retina" data-name="aperto_Web-Estate_awards_export.fw-Award%20Logos%20Retina" xmlns="http://www.w3.org/2000/svg" viewBox="0 0 400 286"><defs><style>.cls-1{fill:#222;}</style></defs><g id="Ebene_202" data-name="Ebene%202"><g id="Lovie_20Awards" data-name="Lovie%20Awards"><path class="cls-1" d="M465.31,522h9.11c6.68,0,12.05.34,17,5.39,4.45,4.76,6.27,11.84,6.27,18.31,0,5.88-1.92,12.55-5.87,17.1-4.75,5.46-10.73,6.38-17.62,6.38h-8.9Zm-21.55,59.62h32.07c10.64,0,19.14-2.63,26.33-10.72a37.67,37.67,0,0,0,9.32-25.2c0-10-3.24-19.72-10.23-26.8-7.29-7.38-15.09-9.51-25.21-9.51H443.76V522h8.93v47h-8.93Z" transform="translate(-160 -297)"/><path class="cls-1" d="M200.35,370.71h10.54v10.14h12.62V358.09h-59v22.76h12.63V370.71H187.7v48.45h-7.88v12.63h28.44V419.16h-7.91Z" transform="translate(-160 -297)"/><path class="cls-1" d="M276.76,388.63H246.69V370.71h7.85V358.09H226.16v12.62h7.9v48.45h-7.9v12.63h28.38V419.16h-7.85v-17.9h30.07v17.9h-7.9v12.63h28.37V419.16h-7.79V370.71h7.79V358.09H268.86v12.62h7.9Z" transform="translate(-160 -297)"/><path class="cls-1" d="M299.87,431.79h58.48V409.94h-12.6v9.22H320.41v-17.9h22.84V388.63H320.41V370.71h25.42v9.13h12.6V358.09H299.87v12.62h7.9v48.45h-7.9Z" transform="translate(-160 -297)"/><path class="cls-1" d="M179.82,506.67h51.57V484.82H218.8v9.23H200.36v-47h7.9V434.44H179.82v12.62h7.9v47h-7.9Z" transform="translate(-160 -297)"/><path class="cls-1" d="M268.4,494c-13,0-23.11-10.67-23.11-23.7a23.17,23.17,0,0,1,46.34-.1c0,13-10.08,23.8-23.23,23.8Zm0,13.42a37,37,0,0,0,37.06-37.32c0-20-16.7-36.43-36.76-36.43a36.88,36.88,0,1,0-.3,73.75Z" transform="translate(-160 -297)"/><path class="cls-1" d="M406.08,434.44H377.7v12.62h7.89v47H377.7v12.62h28.38V494.05h-7.85v-47h7.85Z" transform="translate(-160 -297)"/><path class="cls-1" d="M408.71,506.67V494.05h7.9v-47h-7.9V434.44H450v12.62h-20.8v16.68h20.81v12.62H429.24v17.69H452.7v-9.23h12.61v21.85Z" transform="translate(-160 -297)"/><path class="cls-1" d="M391.56,309.62h12.63V297H391.56Z" transform="translate(-160 -297)"/><path class="cls-1" d="M513.81,309.62h12.63V297H513.81Z" transform="translate(-160 -297)"/><path class="cls-1" d="M498.54,309.62h12.63V297H498.54Z" transform="translate(-160 -297)"/><path class="cls-1" d="M483.25,309.62h12.63V297H483.25Z" transform="translate(-160 -297)"/><path class="cls-1" d="M422.11,309.62h12.64V297H422.11Z" transform="translate(-160 -297)"/><path class="cls-1" d="M406.84,309.62h12.63V297H406.84Z" transform="translate(-160 -297)"/><path class="cls-1" d="M406.84,324.9h12.63V312.27H406.84Z" transform="translate(-160 -297)"/><path class="cls-1" d="M406.84,340.17h12.63V327.54H406.84Z" transform="translate(-160 -297)"/><path class="cls-1" d="M406.84,355.44h12.63V342.81H406.84Z" transform="translate(-160 -297)"/><path class="cls-1" d="M406.84,370.71h12.63V358.09H406.84Z" transform="translate(-160 -297)"/><path class="cls-1" d="M406.84,386h12.63V373.35H406.84Z" transform="translate(-160 -297)"/><path class="cls-1" d="M406.84,401.25h12.63V388.62H406.84Z" transform="translate(-160 -297)"/><path class="cls-1" d="M422.11,324.9h12.64V312.27H422.11Z" transform="translate(-160 -297)"/><path class="cls-1" d="M422.11,340.17h12.64V327.54H422.11Z" transform="translate(-160 -297)"/><path class="cls-1" d="M422.11,355.44h12.64V342.81H422.11Z" transform="translate(-160 -297)"/><path class="cls-1" d="M422.11,370.71h12.64V358.09H422.11Z" transform="translate(-160 -297)"/><path class="cls-1" d="M422.11,386h12.64V373.35H422.11Z" transform="translate(-160 -297)"/><path class="cls-1" d="M422.11,401.25h12.64V388.62H422.11Z" transform="translate(-160 -297)"/><path class="cls-1" d="M422.11,416.52h12.64V403.89H422.11Z" transform="translate(-160 -297)"/><path class="cls-1" d="M437.4,324.9H450V312.27H437.4Z" transform="translate(-160 -297)"/><path class="cls-1" d="M437.4,340.17H450V327.54H437.4Z" transform="translate(-160 -297)"/><path class="cls-1" d="M437.4,355.44H450V342.81H437.4Z" transform="translate(-160 -297)"/><path class="cls-1" d="M437.4,370.71H450V358.09H437.4Z" transform="translate(-160 -297)"/><path class="cls-1" d="M437.4,386H450V373.35H437.4Z" transform="translate(-160 -297)"/><path class="cls-1" d="M437.4,401.25H450V388.62H437.4Z" transform="translate(-160 -297)"/><path class="cls-1" d="M437.4,416.52H450V403.89H437.4Z" transform="translate(-160 -297)"/><path class="cls-1" d="M437.4,431.79H450V419.16H437.4Z" transform="translate(-160 -297)"/><path class="cls-1" d="M452.68,340.17h12.64V327.54H452.68Z" transform="translate(-160 -297)"/><path class="cls-1" d="M452.68,355.44h12.64V342.81H452.68Z" transform="translate(-160 -297)"/><path class="cls-1" d="M452.68,370.71h12.64V358.09H452.68Z" transform="translate(-160 -297)"/><path class="cls-1" d="M452.68,386h12.64V373.35H452.68Z" transform="translate(-160 -297)"/><path class="cls-1" d="M452.68,401.25h12.64V388.62H452.68Z" transform="translate(-160 -297)"/><path class="cls-1" d="M452.68,416.52h12.64V403.89H452.68Z" transform="translate(-160 -297)"/><path class="cls-1" d="M452.68,431.79h12.64V419.16H452.68Z" transform="translate(-160 -297)"/><path class="cls-1" d="M452.68,447.06h12.64V434.44H452.68Z" transform="translate(-160 -297)"/><path class="cls-1" d="M452.68,462.32h12.64V449.71H452.68Z" transform="translate(-160 -297)"/><path class="cls-1" d="M468,324.9H480.6V312.27H468Z" transform="translate(-160 -297)"/><path class="cls-1" d="M468,340.17H480.6V327.54H468Z" transform="translate(-160 -297)"/><path class="cls-1" d="M468,355.44H480.6V342.81H468Z" transform="translate(-160 -297)"/><path class="cls-1" d="M468,370.71H480.6V358.09H468Z" transform="translate(-160 -297)"/><path class="cls-1" d="M468,386H480.6V373.35H468Z" transform="translate(-160 -297)"/><path class="cls-1" d="M468,401.25H480.6V388.62H468Z" transform="translate(-160 -297)"/><path class="cls-1" d="M468,416.52H480.6V403.89H468Z" transform="translate(-160 -297)"/><path class="cls-1" d="M468,431.79H480.6V419.16H468Z" transform="translate(-160 -297)"/><path class="cls-1" d="M483.25,324.9h12.63V312.27H483.25Z" transform="translate(-160 -297)"/><path class="cls-1" d="M483.25,340.17h12.63V327.54H483.25Z" transform="translate(-160 -297)"/><path class="cls-1" d="M483.25,355.44h12.63V342.81H483.25Z" transform="translate(-160 -297)"/><path class="cls-1" d="M483.25,370.71h12.63V358.09H483.25Z" transform="translate(-160 -297)"/><path class="cls-1" d="M483.25,386h12.63V373.35H483.25Z" transform="translate(-160 -297)"/><path class="cls-1" d="M483.25,401.25h12.63V388.62H483.25Z" transform="translate(-160 -297)"/><path class="cls-1" d="M483.25,416.52h12.63V403.89H483.25Z" transform="translate(-160 -297)"/><path class="cls-1" d="M498.54,324.9h12.63V312.27H498.54Z" transform="translate(-160 -297)"/><path class="cls-1" d="M498.54,340.17h12.63V327.54H498.54Z" transform="translate(-160 -297)"/><path class="cls-1" d="M498.54,355.44h12.63V342.81H498.54Z" transform="translate(-160 -297)"/><path class="cls-1" d="M498.54,370.71h12.63V358.09H498.54Z" transform="translate(-160 -297)"/><path class="cls-1" d="M498.54,386h12.63V373.35H498.54Z" transform="translate(-160 -297)"/><path class="cls-1" d="M498.54,401.25h12.63V388.62H498.54Z" transform="translate(-160 -297)"/><path class="cls-1" d="M544.38,340.17H557V327.54H544.38Z" transform="translate(-160 -297)"/><path class="cls-1" d="M544.38,355.44H557V342.81H544.38Z" transform="translate(-160 -297)"/><path class="cls-1" d="M544.38,370.71H557V358.09H544.38Z" transform="translate(-160 -297)"/><path class="cls-1" d="M513.81,324.9h12.63V312.27H513.81Z" transform="translate(-160 -297)"/><path class="cls-1" d="M513.81,340.17h12.63V327.54H513.81Z" transform="translate(-160 -297)"/><path class="cls-1" d="M513.81,355.44h12.63V342.81H513.81Z" transform="translate(-160 -297)"/><path class="cls-1" d="M513.81,370.71h12.63V358.09H513.81Z" transform="translate(-160 -297)"/><path class="cls-1" d="M513.81,386h12.63V373.35H513.81Z" transform="translate(-160 -297)"/><path class="cls-1" d="M513.81,401.25h12.63V388.62H513.81Z" transform="translate(-160 -297)"/><path class="cls-1" d="M529.1,324.9h12.63V312.27H529.1Z" transform="translate(-160 -297)"/><path class="cls-1" d="M529.1,340.17h12.63V327.54H529.1Z" transform="translate(-160 -297)"/><path class="cls-1" d="M529.1,355.44h12.63V342.81H529.1Z" transform="translate(-160 -297)"/><path class="cls-1" d="M529.1,370.71h12.63V358.09H529.1Z" transform="translate(-160 -297)"/><path class="cls-1" d="M529.1,386h12.63V373.35H529.1Z" transform="translate(-160 -297)"/><path class="cls-1" d="M376.27,324.9h12.64V312.27H376.27Z" transform="translate(-160 -297)"/><path class="cls-1" d="M376.27,340.17h12.64V327.54H376.27Z" transform="translate(-160 -297)"/><path class="cls-1" d="M376.27,355.44h12.64V342.81H376.27Z" transform="translate(-160 -297)"/><path class="cls-1" d="M376.27,370.71h12.64V358.09H376.27Z" transform="translate(-160 -297)"/><path class="cls-1" d="M376.27,386h12.64V373.35H376.27Z" transform="translate(-160 -297)"/><path class="cls-1" d="M391.56,340.17h12.63V327.54H391.56Z" transform="translate(-160 -297)"/><path class="cls-1" d="M391.56,355.44h12.63V342.81H391.56Z" transform="translate(-160 -297)"/><path class="cls-1" d="M391.56,370.71h12.63V358.09H391.56Z" transform="translate(-160 -297)"/><path class="cls-1" d="M391.56,386h12.63V373.35H391.56Z" transform="translate(-160 -297)"/><path class="cls-1" d="M391.56,401.25h12.63V388.62H391.56Z" transform="translate(-160 -297)"/><path class="cls-1" d="M361,340.17h12.63V327.54H361Z" transform="translate(-160 -297)"/><path class="cls-1" d="M361,355.44h12.63V342.81H361Z" transform="translate(-160 -297)"/><path class="cls-1" d="M361,370.71h12.63V358.09H361Z" transform="translate(-160 -297)"/><path class="cls-1" d="M344.63,506.69,367,447.08h7.95V434.46H358.78l-.13,0v0H346.82v12.62h7.08l-16.24,43.28-16.23-43.28h7.34V434.46H316.68l0,0-.11,0H299.88v12.62h8.45l22.36,59.61h0" transform="translate(-160 -297)"/><path class="cls-1" d="M419.88,533.09a11.45,11.45,0,0,1-4,8.87c-2.75,2.33-5.92,2.44-9.38,2.44h-8.26V522h7.65c3.36,0,6.42.09,9.38,2.24a10.73,10.73,0,0,1,4.59,8.86ZM430.78,569l-10-14.37a21.57,21.57,0,0,0,6-4.38,23.86,23.86,0,0,0,7-17.12c0-7.54-2.86-14.47-9-19-5.4-4-12.84-4.79-19.37-4.79H377.7V522h7.89v59.58h20.62V569h-7.95v-12h8.59l17.36,24.64h16.91V569h0" transform="translate(-160 -297)"/><path class="cls-1" d="M544.71,528.78h12.36V509.35H544.4v1.92a16.89,16.89,0,0,0-10.73-3.43c-11.64,0-21.86,8.9-21.86,20.84a19,19,0,0,0,7.89,15.78c4.45,3.34,8.91,4.65,14.18,6.17,5.57,1.63,12.35,3.45,12.35,10.63,0,6.17-4.65,9.92-10.64,9.92-6.68,0-10.72-5.07-10.72-11H512.31V569h0v12.62h12.63v-3a17.5,17.5,0,0,0,12.18,4.4c13.16,0,22.88-9.62,22.88-22.67a19,19,0,0,0-7.19-15.16c-4.65-3.55-9.92-5.06-15.49-6.58s-11.84-3.14-11.84-10.22c0-5.67,4.45-9,9.82-9a9.26,9.26,0,0,1,9.41,9.41Z" transform="translate(-160 -297)"/><path class="cls-1" d="M205.65,544.45H191.57l7-18.76Zm29.12,37.17V569H228l-22.39-59.65H179.82V522h7.09l-17.65,47H160v12.63h29.45V569h-7.09l4.47-11.92h23.56L214.87,569h-7.36v12.62h27.26Z" transform="translate(-160 -297)"/><path class="cls-1" d="M355.23,544.45H341.14l7.05-18.76Zm27.69,37.17V569h-5.38l-22.38-59.65H329.63V522h6.86l-17.65,47h-9.27v12.63H339V569h-7.1l4.48-11.92H360L364.44,569h-7.36v12.62h25.84Z" transform="translate(-160 -297)"/><path class="cls-1" d="M218.83,522h6.27l22.37,59.61H261.4l10-26.66,10,26.66h13.92L317.7,522H327V509.39H309.49l-.12,0,0,0H297.53V522h7.08l-16.24,43.27L278,537.52l5.81-15.5h11.13V509.39H275.55l-.13,0v0H263.59V522h7.08l-16.24,43.27L238.2,522h7.34V509.39H233.46l0,0-.12,0H218.83Z" transform="translate(-160 -297)"/></g></g></svg>