<svg id="Layer_1" data-name="Layer 1" xmlns="http://www.w3.org/2000/svg" viewBox="0 0 30.96 18.12"><defs><style>.cls-1{fill-rule:evenodd;}</style></defs><path class="cls-1" d="M564.54,611.63h1.6a4,4,0,0,1,2.06-1.12l2.87-9.16.24-.78h9v9.74h2.53v.35a4,4,0,0,1,1.5,1,4.14,4.14,0,0,1-5.85,5.85,4.24,4.24,0,0,1-1-1.5H573a4.24,4.24,0,0,1-1,1.5,4.12,4.12,0,0,1-6.63-1.1h-.82v.53l-10-.68v-1.11h7.36V602.62h2.62v9Zm6.18-1.78,1.75-1.67-.5-.55.46-.42,1.74,1.88-.46.43-.57-.62-2.11,2a3.77,3.77,0,0,1,1,.72,4,4,0,0,1,.86,1.24l2.58-1.07-1.55-.23v-1.32h2.36l.61-4.22h.67v4.9l.53-.22v-7.92h-5.12l-2.21,7.07Zm12,3.33a1.92,1.92,0,1,0,0,2.72,1.93,1.93,0,0,0,0-2.72Zm-12.32,0a1.87,1.87,0,0,0-1.35-.56,1.89,1.89,0,0,0-1.36.56,1.91,1.91,0,0,0,0,2.72,1.89,1.89,0,0,0,1.36.56,1.87,1.87,0,0,0,1.35-.56,1.91,1.91,0,0,0,0-2.72Z" transform="translate(-554.56 -600.56)"/></svg>